<svg width="4096" height="4096" viewBox="10 8 80 84" fill="none" xmlns="http://www.w3.org/2000/svg">
  <path
    d="M58.2 13.6L50.1 9.8C44.2 7 37.2 7.3 31.5 10.5L21.7 16.1C16 19.4 12.5 25.5 12.5 32V58.1C12.5 64.8 16.2 70.9 22 74.1L30.6 78.9C36.3 82.1 43.2 82.3 49 79.5L57.8 75.2"
    stroke="#141316"
    stroke-width="8.2"
    stroke-linecap="round"
    stroke-linejoin="round"
  />
  <path
    d="M35 23.8V45.7C35 53.8 40.8 60.2 48.5 60.2H52.2"
    stroke="#141316"
    stroke-width="8.2"
    stroke-linecap="round"
    stroke-linejoin="round"
  />
  <path
    d="M47.6 27.5L60.1 20.2C65.9 16.8 73 16.7 78.8 19.8C84 22.7 87.5 28.1 87.5 34V39C87.5 43.3 85.9 47.2 83 50.2"
    stroke="#141316"
    stroke-width="8.2"
    stroke-linecap="round"
    stroke-linejoin="round"
  />
  <path
    d="M55.2 35.2H67.1C72.2 35.2 76.4 39.3 76.4 44.4C76.4 47.8 74.6 50.8 71.8 52.5C75.4 54.3 77.9 57.9 77.9 62.2C77.9 67.6 73.5 72 68.1 72H55.2V35.2Z"
    stroke="#141316"
    stroke-width="8.2"
    stroke-linecap="round"
    stroke-linejoin="round"
  />
  <path
    d="M55.2 52.4H65.7"
    stroke="#141316"
    stroke-width="8.2"
    stroke-linecap="round"
  />
  <path
    d="M29.3 79.2L38.1 84.4C43.8 87.7 50.8 87.8 56.6 84.6L67.7 78.4"
    stroke="#141316"
    stroke-width="8.2"
    stroke-linecap="round"
    stroke-linejoin="round"
  />
</svg>
