<svg width="4096" height="4096" viewBox="0 0 100 100" fill="none" xmlns="http://www.w3.org/2000/svg" shape-rendering="geometricPrecision">
  <path
    d="M60 13L51.8 9.3C46 6.7 39.3 7 33.8 10L23.2 16C16.9 19.6 13 26.2 13 33.5V59.8C13 67.2 17.1 74 23.8 77.4L32.8 82C38.2 84.8 44.7 84.9 50.2 82.1L59.5 77.4"
    stroke="#171417"
    stroke-width="6.5"
    stroke-linecap="round"
    stroke-linejoin="round"
  />
  <path
    d="M34.5 26.5V49.8C34.5 58.8 41.2 66 49.6 66H54.2"
    stroke="#171417"
    stroke-width="6.5"
    stroke-linecap="round"
    stroke-linejoin="round"
  />
  <path
    d="M49.2 25.3L63.1 17.3C69.2 13.8 76.8 13.7 83 17C88.8 20.1 92.4 26.1 92.4 32.7V39.2C92.4 44.3 90.2 49.1 86.3 52.4"
    stroke="#171417"
    stroke-width="6.5"
    stroke-linecap="round"
    stroke-linejoin="round"
  />
  <path
    d="M58 36.5H71.2C76.8 36.5 81.4 41 81.4 46.6C81.4 50.4 79.3 53.8 76 55.6C80.6 57.4 83.9 61.8 83.9 66.9C83.9 73.6 78.5 79 71.8 79H58V36.5Z"
    stroke="#171417"
    stroke-width="6.5"
    stroke-linecap="round"
    stroke-linejoin="round"
  />
  <path
    d="M58 57.7H69.1"
    stroke="#171417"
    stroke-width="6.5"
    stroke-linecap="round"
  />
  <path
    d="M28.8 81.7L39 87.8C45.1 91.5 52.7 91.7 59 88.3L71.7 81.4"
    stroke="#171417"
    stroke-width="6.5"
    stroke-linecap="round"
    stroke-linejoin="round"
  />
</svg>
